<?xml version="1.0" encoding="utf-8"?>
<svg version="1.1" xmlns:xlink="http://www.w3.org/1999/xlink" width="25px" height="25px" xmlns="http://www.w3.org/2000/svg">
  <g transform="matrix(1 0 0 1 -151 -357 )">
    <path d="M 20.294744318181817 11.5234375  C 20.40127840909091 11.629971590909092  20.454545454545457 11.766098484848483  20.454545454545457 11.931818181818182  L 20.454545454545457 13.068181818181818  C 20.454545454545457 13.233901515151514  20.40127840909091 13.370028409090908  20.294744318181817 13.4765625  C 20.188210227272727 13.583096590909092  20.052083333333336 13.636363636363635  19.886363636363637 13.636363636363635  L 13.636363636363635 13.636363636363635  L 13.636363636363635 19.886363636363637  C 13.636363636363635 20.052083333333332  13.583096590909092 20.188210227272727  13.4765625 20.294744318181817  C 13.370028409090908 20.40127840909091  13.233901515151517 20.454545454545453  13.068181818181818 20.454545454545453  L 11.931818181818182 20.454545454545453  C 11.766098484848486 20.454545454545453  11.629971590909092 20.40127840909091  11.5234375 20.294744318181817  C 11.416903409090908 20.188210227272727  11.363636363636363 20.052083333333332  11.363636363636363 19.886363636363637  L 11.363636363636363 13.636363636363635  L 5.113636363636364 13.636363636363635  C 4.947916666666667 13.636363636363635  4.8117897727272725 13.583096590909092  4.705255681818182 13.4765625  C 4.598721590909091 13.370028409090908  4.545454545454546 13.233901515151514  4.545454545454546 13.068181818181818  L 4.545454545454546 11.931818181818182  C 4.545454545454546 11.766098484848483  4.598721590909091 11.629971590909092  4.705255681818182 11.5234375  C 4.8117897727272725 11.416903409090908  4.947916666666667 11.363636363636365  5.113636363636364 11.363636363636365  L 11.363636363636363 11.363636363636365  L 11.363636363636363 5.113636363636365  C 11.363636363636363 4.9479166666666625  11.416903409090908 4.811789772727273  11.5234375 4.7052556818181825  C 11.629971590909092 4.598721590909091  11.766098484848486 4.545454545454544  11.931818181818182 4.545454545454544  L 13.068181818181818 4.545454545454544  C 13.233901515151517 4.545454545454544  13.370028409090908 4.598721590909091  13.4765625 4.7052556818181825  C 13.583096590909092 4.811789772727273  13.636363636363635 4.9479166666666625  13.636363636363635 5.113636363636365  L 13.636363636363635 11.363636363636365  L 19.886363636363637 11.363636363636365  C 20.052083333333336 11.363636363636365  20.188210227272727 11.416903409090908  20.294744318181817 11.5234375  Z M 21.892755681818183 21.892755681818183  C 22.449100378787882 21.33641098484848  22.727272727272727 20.667613636363637  22.727272727272727 19.886363636363637  L 22.727272727272727 5.113636363636365  C 22.727272727272727 4.332386363636365  22.449100378787882 3.663589015151514  21.892755681818183 3.1072443181818175  C 21.336410984848484 2.550899621212119  20.667613636363637 2.2727272727272734  19.886363636363637 2.2727272727272734  L 5.113636363636364 2.2727272727272734  C 4.332386363636364 2.2727272727272734  3.663589015151516 2.550899621212119  3.107244318181818 3.1072443181818175  C 2.5508996212121215 3.663589015151514  2.272727272727273 4.332386363636365  2.272727272727273 5.113636363636365  L 2.272727272727273 19.886363636363637  C 2.272727272727273 20.667613636363637  2.5508996212121215 21.33641098484848  3.107244318181818 21.892755681818183  C 3.663589015151516 22.44910037878788  4.332386363636364 22.727272727272727  5.113636363636364 22.727272727272727  L 19.886363636363637 22.727272727272727  C 20.667613636363637 22.727272727272727  21.336410984848484 22.44910037878788  21.892755681818183 21.892755681818183  Z M 23.499644886363637 1.5003551136363646  C 24.499881628787882 2.500591856060605  25 3.7050189393939363  25 5.113636363636365  L 25 19.886363636363637  C 25 21.294981060606062  24.499881628787882 22.499408143939394  23.499644886363637 23.499644886363637  C 22.499408143939394 24.49988162878788  21.294981060606062 25  19.886363636363637 25  L 5.113636363636364 25  C 3.70501893939394 25  2.5005918560606064 24.49988162878788  1.5003551136363635 23.499644886363637  C 0.5001183712121212 22.499408143939394  0 21.294981060606062  0 19.886363636363637  L 0 5.113636363636365  C 0 3.7050189393939363  0.5001183712121212 2.500591856060605  1.5003551136363635 1.5003551136363646  C 2.5005918560606064 0.5001183712121188  3.70501893939394 0  5.113636363636364 0  L 19.886363636363637 0  C 21.294981060606062 0  22.499408143939394 0.5001183712121188  23.499644886363637 1.5003551136363646  Z " fill-rule="nonzero" fill="#000000" stroke="none" transform="matrix(1 0 0 1 151 357 )" />
  </g>
</svg>