<?xml version="1.0" encoding="utf-8"?>
<svg version="1.1" xmlns:xlink="http://www.w3.org/1999/xlink" width="78px" height="59px" xmlns="http://www.w3.org/2000/svg">
  <g transform="matrix(1 0 0 1 -106 -143 )">
    <path d="M 76.59096774193549 8.144781144781147  C 77.53032258064518 9.071829405162736  78.00000000000001 10.19753086419753  78 11.521885521885523  C 78.00000000000001 12.846240179573506  77.53032258064518 13.9719416386083  76.59096774193549 14.898989898989896  L 40.157419354838716 50.85521885521885  L 33.31354838709677 57.60942760942761  C 32.3741935483871 58.5364758698092  31.23354838709678 59  29.89161290322581 59  C 28.54967741935484 59  27.40903225806452 58.5364758698092  26.469677419354838 57.60942760942761  L 19.625806451612902 50.85521885521885  L 1.4090322580645163 32.87710437710438  C 0.4696774193548392 31.950056116722777  0 30.824354657687984  0 29.5  C 0 28.17564534231201  0.4696774193548392 27.049943883277216  1.4090322580645163 26.122895622895626  L 8.25290322580645 19.36868686868687  C 9.19225806451613 18.441638608305272  10.332903225806454 17.97811447811447  11.67483870967742 17.978114478114477  C 13.016774193548391 17.97811447811447  14.15741935483871 18.441638608305272  15.096774193548386 19.36868686868687  L 29.89161290322581 34.01936026936027  L 62.90322580645161 1.3905723905723908  C 63.8425806451613 0.46352413019079475  64.98322580645163 0  66.32516129032258 0  C 67.66709677419355 0  68.80774193548388 0.46352413019079475  69.74709677419355 1.3905723905723908  L 76.59096774193549 8.144781144781147  Z " fill-rule="nonzero" fill="#20a36c" stroke="none" fill-opacity="0.996078431372549" transform="matrix(1 0 0 1 106 143 )" />
  </g>
</svg>